<?xml version="1.0" encoding="utf-8"?>
<!-- Generator: Adobe Illustrator 22.0.1, SVG Export Plug-In . SVG Version: 6.00 Build 0)  -->
<svg version="1.1" id="Layer_2" xmlns="http://www.w3.org/2000/svg" xmlns:xlink="http://www.w3.org/1999/xlink" x="0px" y="0px"
	 viewBox="0 0 71.6 46.1" style="enable-background:new 0 0 71.6 46.1;" xml:space="preserve">
<style type="text/css">
	.st0{fill:#FFFFFF;}
</style>
<g>
	<path class="st0" d="M31.9,13.2h-4.2c0-3.1-0.7-5.3-2.2-6.5C24,5.6,22.2,5,20.1,5.1l-2.3,0.1c-1,0-1.8,0.2-2.4,0.4
		c-0.6,0.2-1,0.7-1.4,1.5c-0.3,0.8-0.5,2-0.5,3.5v9.5H21c0-0.7-0.1-2.5-0.3-5.5h4.9v15.3h-4.2c0-1.7-0.3-2.9-0.8-3.7
		c-0.5-0.8-1.2-1.3-2-1.5c-0.8-0.2-2-0.3-3.3-0.3l-1.6,0.1v10.3c0,2.3-0.1,4.1-0.3,5.5h8.4c2.1,0,4-0.7,5.4-2.2
		c1.5-1.4,2.2-3.7,2.2-6.9h4.1l-0.3,13.9H0V41c1.1,0,2-0.2,2.6-0.4c0.6-0.2,1-0.7,1.4-1.5c0.3-0.8,0.5-2,0.5-3.6V11.3
		c0-2.4,0.1-4.2,0.3-5.7L0,5.9V1h31.5L31.9,13.2z"/>
	<path class="st0" d="M59.3,0.8c2,0.5,3.6,1.3,4.9,2.2h0.1L64,0.4h4.9v14.7h-4.2c-0.5-3.4-1.8-6.1-3.6-7.9c-1.9-1.8-4.3-2.7-7.2-2.7
		c-1.9,0-3.5,0.5-4.9,1.5c-1.4,1-2,2.3-2,3.9c0,1.8,0.8,3.4,2.3,4.7c1.6,1.3,4.2,2.6,7.9,4.2c4.2,1.7,7.7,3.6,10.4,5.8
		c2.7,2.2,4,5.1,4,8.8c0,2.5-0.7,4.7-2,6.6c-1.3,1.9-3.2,3.4-5.7,4.5s-5.2,1.6-8.4,1.6c-1.7,0-3.6-0.3-5.5-0.8
		c-2-0.5-3.7-1.3-5.4-2.3h-0.1l0.2,2.6h-4.9V30.9H44c0.5,3.4,1.9,6.1,4,7.9c2.1,1.8,4.7,2.7,7.7,2.7c2.2,0,4-0.6,5.4-1.7
		c1.4-1.2,2.1-2.6,2.1-4.2c0-1.3-0.5-2.5-1.4-3.5c-0.9-1-2-1.7-3.1-2.3c-1.2-0.5-3-1.3-5.5-2.3c-4.6-1.8-8.2-3.9-10.6-6.3
		c-2.5-2.4-3.7-5.4-3.7-9.3c0-1.9,0.5-3.8,1.4-5.6c1-1.8,2.6-3.3,4.8-4.6C47.3,0.6,50.1,0,53.6,0C55.4,0,57.3,0.3,59.3,0.8z"/>
</g>
</svg>
