<svg id="Layer_1" data-name="Layer 1" xmlns="http://www.w3.org/2000/svg" viewBox="0 0 78.48 52.7"><defs><style>.cls-1{fill:#fff;}</style></defs><title>entsoc_logo</title><path class="cls-1" d="M45.75,37.4H43.38q0-5.9-2.56-8.06t-7.16-2l-6.19.14a6.44,6.44,0,0,0-3.74,1A3.94,3.94,0,0,0,22.28,31,32.11,32.11,0,0,0,22,36V47.55l13.54.07L35,41.43h3.17V56.55H35.82a10,10,0,0,0-.65-4.07,3.38,3.38,0,0,0-2-1.87,11.64,11.64,0,0,0-3.71-.47l-2.23.07L22,50.43V66.92a53.21,53.21,0,0,1-.22,5.62l13.75-.22q5-.07,7.7-2.56t2.66-8.6h2.45l-.43,14H10.76V72.82a5.18,5.18,0,0,0,3.6-1.15,4.09,4.09,0,0,0,1.22-2.56q.14-1.48.14-5.15V32.86q0-3,.22-5.18L10.76,28V24.8H45.39Z" transform="translate(-10.76 -23.65)"/><path class="cls-1" d="M77,24.48a17.14,17.14,0,0,1,6,2.84l-.29-3.1h3.67V40.06H83.84a16.17,16.17,0,0,0-3.64-9.61Q76.93,26.53,71,26.53a9.23,9.23,0,0,0-6.77,2.41,8.1,8.1,0,0,0-2.45,6,7.75,7.75,0,0,0,1.66,5,14,14,0,0,0,4,3.46q2.38,1.37,6.7,3.38a80.41,80.41,0,0,1,7.88,4,17,17,0,0,1,5.08,4.72,12,12,0,0,1,2.09,7.16,12.52,12.52,0,0,1-7.78,12,21.85,21.85,0,0,1-9.07,1.73,25.71,25.71,0,0,1-6.8-.94,19.4,19.4,0,0,1-6-2.74l.36,3.1H56.19l-.43-15.34h2.81q.36,6.19,4.25,9.54a14.58,14.58,0,0,0,9.86,3.35,11.36,11.36,0,0,0,7.38-2.41,8,8,0,0,0,3-6.59A8.42,8.42,0,0,0,81.36,59a14.69,14.69,0,0,0-4.18-3.67,73.83,73.83,0,0,0-6.73-3.42q-4.83-2.3-7.67-4a16.27,16.27,0,0,1-4.86-4.57,11.83,11.83,0,0,1-2-7,13.61,13.61,0,0,1,1.33-5.76,11.48,11.48,0,0,1,4.61-4.9,16.41,16.41,0,0,1,8.68-2A26.55,26.55,0,0,1,77,24.48Z" transform="translate(-10.76 -23.65)"/></svg>